<?xml version="1.0" encoding="UTF-8" standalone="no"?>
<!-- Created with Inkscape (http://www.inkscape.org/) -->

<svg
   xmlns:dc="http://purl.org/dc/elements/1.1/"
   xmlns:cc="http://creativecommons.org/ns#"
   xmlns:rdf="http://www.w3.org/1999/02/22-rdf-syntax-ns#"
   xmlns:svg="http://www.w3.org/2000/svg"
   xmlns="http://www.w3.org/2000/svg"
   xmlns:sodipodi="http://sodipodi.sourceforge.net/DTD/sodipodi-0.dtd"
   xmlns:inkscape="http://www.inkscape.org/namespaces/inkscape"
   width="56.444447mm"
   height="13.033928mm"
   viewBox="0 0 199.99993 46.183208"
   id="svg7386"
   version="1.1"
   inkscape:version="0.91 r13725"
   sodipodi:docname="logo.svg">
  <defs
     id="defs7388" />
  <sodipodi:namedview
     id="base"
     pagecolor="#ffffff"
     bordercolor="#666666"
     borderopacity="1.0"
     inkscape:pageopacity="0.0"
     inkscape:pageshadow="2"
     inkscape:zoom="2.8"
     inkscape:cx="152.28186"
     inkscape:cy="15.444235"
     inkscape:document-units="px"
     inkscape:current-layer="layer1"
     showgrid="false"
     fit-margin-top="0"
     fit-margin-left="0"
     fit-margin-right="0"
     fit-margin-bottom="0"
     inkscape:window-width="1920"
     inkscape:window-height="971"
     inkscape:window-x="0"
     inkscape:window-y="0"
     inkscape:window-maximized="1" />
  <metadata
     id="metadata7391">
    <rdf:RDF>
      <cc:Work
         rdf:about="">
        <dc:format>image/svg+xml</dc:format>
        <dc:type
           rdf:resource="http://purl.org/dc/dcmitype/StillImage" />
        <dc:title></dc:title>
      </cc:Work>
    </rdf:RDF>
  </metadata>
  <g
     inkscape:label="Layer 1"
     inkscape:groupmode="layer"
     id="layer1"
     transform="translate(-81.010224,-165.04629)">
    <g
       id="g7964"
       transform="matrix(0.26717558,0,0,0.26717558,59.366226,154.79413)">
      <rect
         inkscape:export-ydpi="90"
         inkscape:export-xdpi="90"
         y="38.372353"
         x="81.010162"
         height="172.85715"
         width="748.57141"
         id="rect4407"
         style="fill:#06038d;fill-opacity:1;stroke:none" />
      <g
         style="font-style:normal;font-weight:normal;font-size:117.76070404px;line-height:125%;font-family:sans-serif;letter-spacing:0px;word-spacing:0px;opacity:1;fill:#ffffff;fill-opacity:1;stroke:none;stroke-width:1px;stroke-linecap:butt;stroke-linejoin:miter;stroke-opacity:1"
         id="text4403">
        <path
           id="path8009"
           style="font-style:normal;font-variant:normal;font-weight:bold;font-stretch:normal;font-family:'DIN Next LT Pro';-inkscape-font-specification:'DIN Next LT Pro Bold';fill:#ffffff;fill-opacity:1"
           d="m 746.36998,163.94717 c -0.23552,0.70656 0.11776,1.1776 0.82432,1.1776 l 12.71816,0 c 0.82432,0 1.29537,-0.35328 1.53089,-1.1776 l 25.67183,-80.312803 c 0.23552,-0.706564 -0.11776,-1.177607 -0.82432,-1.177607 l -12.83592,0 c -0.82432,0 -1.29537,0.353282 -1.53089,1.177607 l -25.55407,80.312803 z m -42.38286,1.1776 c 14.01353,0 25.08303,-6.47683 29.20466,-19.43051 1.76641,-5.53475 2.23745,-10.00966 2.23745,-21.90349 0,-11.89383 -0.47104,-16.36874 -2.23745,-21.90349 -4.12163,-12.953681 -15.19113,-19.43052 -29.20466,-19.43052 -14.01352,0 -25.08303,6.476839 -29.20465,19.43052 -1.76641,5.53475 -2.23746,10.00966 -2.23746,21.90349 0,11.89383 0.47105,16.36874 2.23746,21.90349 4.12162,12.95368 15.19113,19.43051 29.20465,19.43051 z m 0,-15.30889 c -6.5946,0 -10.83398,-3.2973 -12.60039,-8.83205 -0.94209,-2.82626 -1.29537,-6.71236 -1.29537,-17.19306 0,-10.48071 0.35328,-14.36681 1.29537,-17.19307 1.76641,-5.53475 6.00579,-8.832048 12.60039,-8.832048 6.5946,0 10.83399,3.297298 12.6004,8.832048 0.94208,2.82626 1.29537,6.71236 1.29537,17.19307 0,10.4807 -0.35329,14.3668 -1.29537,17.19306 -1.76641,5.53475 -6.0058,8.83205 -12.6004,8.83205 z M 602.67429,162.6518 c 0,0.70656 0.47104,1.17761 1.17761,1.17761 l 14.95561,0 c 0.70656,0 1.1776,-0.47105 1.1776,-1.17761 l 0,-20.3726 10.48071,-13.1892 18.13514,33.67956 c 0.47105,0.82433 0.82433,1.05985 1.76641,1.05985 l 17.31083,0 c 0.82432,0 1.17761,-0.58881 0.70656,-1.41313 l -26.49616,-46.751 24.25871,-30.382263 c 0.5888,-0.706564 0.23552,-1.530889 -0.47104,-1.530889 l -17.07531,0 c -0.94208,0 -1.41312,0.235521 -2.00193,1.059846 l -26.61392,34.739406 0,-34.621645 c 0,-0.706564 -0.47104,-1.177607 -1.1776,-1.177607 l -14.95561,0 c -0.70657,0 -1.17761,0.471043 -1.17761,1.177607 l 0,77.722065 z m -15.98785,-21.78573 c 0.70656,0 1.1776,-0.47104 1.1776,-1.17761 l 0,-14.01352 c 0,-0.70657 -0.47104,-1.17761 -1.1776,-1.17761 l -14.01353,0 c -0.70656,0 -1.1776,0.47104 -1.1776,1.17761 l 0,14.01352 c 0,0.70657 0.47104,1.17761 1.1776,1.17761 l 14.01353,0 z m -84.98276,21.78573 c 0,0.70656 0.47104,1.17761 1.17761,1.17761 l 14.9556,0 c 0.70657,0 1.17761,-0.47105 1.17761,-1.17761 l 0,-20.3726 10.4807,-13.1892 18.13515,33.67956 c 0.47105,0.82433 0.82433,1.05985 1.76641,1.05985 l 17.31083,0 c 0.82432,0 1.1776,-0.58881 0.70656,-1.41313 l -26.49616,-46.751 24.25871,-30.382263 c 0.5888,-0.706564 0.23552,-1.530889 -0.47105,-1.530889 l -17.0753,0 c -0.94208,0 -1.41313,0.235521 -2.00193,1.059846 l -26.61392,34.739406 0,-34.621645 c 0,-0.706564 -0.47104,-1.177607 -1.17761,-1.177607 l -14.9556,0 c -0.70657,0 -1.17761,0.471043 -1.17761,1.177607 l 0,77.722065 z m -44.73801,2.47297 c 14.01352,0 25.08303,-6.47683 29.20465,-19.43051 1.76641,-5.53475 2.23746,-10.00966 2.23746,-21.90349 0,-11.89383 -0.47105,-16.36874 -2.23746,-21.90349 -4.12162,-12.953681 -15.19113,-19.43052 -29.20465,-19.43052 -14.01353,0 -25.08303,6.476839 -29.20466,19.43052 -1.76641,5.53475 -2.23745,10.00966 -2.23745,21.90349 0,11.89383 0.47104,16.36874 2.23745,21.90349 4.12163,12.95368 15.19113,19.43051 29.20466,19.43051 z m 0,-15.30889 c -6.5946,0 -10.83399,-3.2973 -12.6004,-8.83205 -0.94208,-2.82626 -1.29536,-6.71236 -1.29536,-17.19306 0,-10.48071 0.35328,-14.36681 1.29536,-17.19307 1.76641,-5.53475 6.0058,-8.832048 12.6004,-8.832048 6.5946,0 10.83398,3.297298 12.60039,8.832048 0.94209,2.82626 1.29537,6.71236 1.29537,17.19307 0,10.4807 -0.35328,14.3668 -1.29537,17.19306 -1.76641,5.53475 -6.00579,8.83205 -12.60039,8.83205 z m -60.18309,14.01353 c 0.70656,0 1.1776,-0.47105 1.1776,-1.17761 l 0,-62.766456 c 0,-0.471042 0.23552,-0.706564 0.70657,-0.706564 l 20.25484,0 c 0.70656,0 1.17761,-0.471043 1.17761,-1.177607 l 0,-13.071438 c 0,-0.706564 -0.47105,-1.177607 -1.17761,-1.177607 l -59.23364,0 c -0.70656,0 -1.1776,0.471043 -1.1776,1.177607 l 0,13.071438 c 0,0.706564 0.47104,1.177607 1.1776,1.177607 l 20.25485,0 c 0.47104,0 0.70656,0.235522 0.70656,0.706564 l 0,62.766456 c 0,0.70656 0.47104,1.17761 1.17761,1.17761 l 14.95561,0 z m -43.08754,-22.96334 c 0.70657,0 1.17761,-0.47104 1.17761,-1.17761 l 0,-14.01352 c 0,-0.70657 -0.47104,-1.17761 -1.17761,-1.17761 l -14.01352,0 c -0.70656,0 -1.17761,0.47104 -1.17761,1.17761 l 0,14.01352 c 0,0.70657 0.47105,1.17761 1.17761,1.17761 l 14.01352,0 z m -59.34035,24.2587 c 14.01353,0 25.08303,-6.47683 29.20466,-19.43051 1.76641,-5.53475 2.23745,-10.00966 2.23745,-21.90349 0,-11.89383 -0.47104,-16.36874 -2.23745,-21.90349 -4.12163,-12.953681 -15.19113,-19.43052 -29.20466,-19.43052 -14.01352,0 -25.08303,6.476839 -29.20465,19.43052 -1.76641,5.53475 -2.23746,10.00966 -2.23746,21.90349 0,11.89383 0.47105,16.36874 2.23746,21.90349 4.12162,12.95368 15.19113,19.43051 29.20465,19.43051 z m 0,-15.30889 c -6.5946,0 -10.83398,-3.2973 -12.60039,-8.83205 -0.94209,-2.82626 -1.29537,-6.71236 -1.29537,-17.19306 0,-10.48071 0.35328,-14.36681 1.29537,-17.19307 1.76641,-5.53475 6.00579,-8.832048 12.60039,-8.832048 6.5946,0 10.83399,3.297298 12.6004,8.832048 0.94208,2.82626 1.29536,6.71236 1.29536,17.19307 0,10.4807 -0.35328,14.3668 -1.29536,17.19306 -1.76641,5.53475 -6.0058,8.83205 -12.6004,8.83205 z M 175.10174,162.6518 c 0,0.70656 0.47104,1.17761 1.17761,1.17761 l 13.30696,0 c 0.70656,0 1.17761,-0.47105 1.17761,-1.17761 l 0,-45.10235 0.47104,0 14.83785,33.79732 c 0.47104,1.05985 1.1776,1.53089 2.23745,1.53089 l 8.12549,0 c 1.05985,0 1.76641,-0.47104 2.23745,-1.53089 l 14.83785,-33.79732 0.47104,0 0,45.10235 c 0,0.70656 0.47105,1.17761 1.17761,1.17761 l 13.30696,0 c 0.70656,0 1.17761,-0.47105 1.17761,-1.17761 l 0,-77.722065 c 0,-0.706564 -0.47105,-1.177607 -1.17761,-1.177607 l -13.778,0 c -0.94209,0 -1.53089,0.353282 -1.88417,1.177607 l -19.90156,45.691155 -0.47104,0 -20.25485,-45.691155 c -0.35328,-0.824325 -0.94208,-1.177607 -1.88417,-1.177607 l -14.01352,0 c -0.70657,0 -1.17761,0.471043 -1.17761,1.177607 l 0,77.722065 z m -53.64552,1.29537 c -0.23552,0.70656 0.11776,1.1776 0.82433,1.1776 l 12.71815,0 c 0.82433,0 1.29537,-0.35328 1.53089,-1.1776 l 25.67184,-80.312803 c 0.23552,-0.706564 -0.11777,-1.177607 -0.82433,-1.177607 l -12.83592,0 c -0.82432,0 -1.29536,0.353282 -1.53089,1.177607 l -25.55407,80.312803 z"
           inkscape:connector-curvature="0" />
      </g>
    </g>
  </g>
</svg>
